<?xml version="1.0" encoding="UTF-8"?>
<svg id="Layer_1" data-name="Layer 1" xmlns="http://www.w3.org/2000/svg" xmlns:xlink="http://www.w3.org/1999/xlink" viewBox="0 0 1024 1024">
  <defs>
    <style>
      .cls-1 {
        fill: url(#linear-gradient);
      }

      .cls-2 {
        fill: #fff;
      }
    </style>
    <linearGradient id="linear-gradient" x1="152.72" y1="871.28" x2="871.28" y2="152.72" gradientUnits="userSpaceOnUse">
      <stop offset="0" stop-color="#00b2ff"/>
      <stop offset="1" stop-color="#006aff"/>
    </linearGradient>
  </defs>
  <rect class="cls-1" x="100" y="100" width="824" height="824" rx="180" ry="180"/>
  <g>
    <path class="cls-2" d="M774.89,219.71s-90.39-20.88-173.58,20.79c-66.52,33.32-92.54,100.72-92.54,100.72,4.56-24.36,19.55-52.18,19.55-52.18-50,19.36-76.7,79.13-76.7,79.13l4.53-25.41c-70.01,55.76-80.9,151.93-80.9,151.93-2.84-25.2,5.5-64.42,5.5-64.42-65.4,69.32-45.02,154.24-45.02,154.24l-43.36,70.24h.01c-8.39,13.39-15.17,26.45-20.62,38.78,4.45,1.84,7.94,5.78,8.98,10.85,1.68,8.12-3.55,16.07-11.67,17.75-2.79.58-5.54.32-8.04-.56-11.68,35.95-11.92,70.09-11.92,70.09,0,0,11.89-21.7,28.85-37.35,21.03-19.4,41.69-30.02,41.69-30.02,3.92-38.2,19.59-72.82,19.59-72.82-6.45-5.21-13.95-8.1-20.5-9.69,151.23-308.16,385.58-386.29,385.58-386.29-255.97,126.51-345.48,359.07-345.48,359.07,90.48-3.69,121.42-59.01,121.42-59.01-23.18,2.84-35.1-.96-35.1-.96,51.41-7.11,87.32-41.33,87.32-41.33-33.46,9.84-63.11,8.62-63.11,8.62,86.12-20.82,125.04-65.35,125.04-65.35-24.33,5.73-46.26,6.79-46.26,6.79,62.32-30.26,95.64-79.68,95.64-79.68-31.84,8.32-58.88,3.82-58.88,3.82,90.98-22.66,116.04-66.58,116.04-66.58-26.86,9.95-47.15,8.75-47.15,8.75,83.62-22.45,121.1-109.92,121.1-109.92Z"/>
    <path class="cls-2" d="M514.62,750.52c37.95,8.34,76.88,11.35,106.47,4.89,59.13-12.9,98.52-51.86,116.27-100.87-44.27,46.12-86.98,64.99-137.38,67.52-43.71,2.19-93.24-8.96-154.34-12.23-135.18-7.25-194.69,91.31-194.69,91.31,72.78-56.43,126.57-80.73,263.65-50.61Z"/>
    <path class="cls-2" d="M488.55,766.51c-120.55-40.03-177.48-9.55-218.53,34.21,80.8-50.43,129.74-22.28,235.14,2.6,126.78,29.92,168.94-58.23,168.94-58.23-37.76,31.65-88.73,53.57-185.56,21.42Z"/>
  </g>
</svg>